<svg width="16" height="16" viewBox="0 0 16 16" fill="none" xmlns="http://www.w3.org/2000/svg">
<g clip-path="url(#clip0_11_55)">
<rect width="16" height="16" fill="black"/>
<path d="M16 8C16.0018 8.23445 15.9305 8.46365 15.7961 8.65572C15.6616 8.8478 15.4707 8.99321 15.2497 9.07175L10.7169 10.7201L9.06931 15.2522C8.9881 15.471 8.84188 15.6597 8.6503 15.7929C8.45871 15.9261 8.23093 15.9976 7.99756 15.9976C7.76419 15.9976 7.53642 15.9261 7.34483 15.7929C7.15324 15.6597 7.00702 15.471 6.92581 15.2522L5.27817 10.7194L0.745384 9.07175C0.526601 8.99055 0.337913 8.84433 0.204667 8.65274C0.0714205 8.46115 0 8.23337 0 8C0 7.76664 0.0714205 7.53886 0.204667 7.34727C0.337913 7.15568 0.526601 7.00946 0.745384 6.92825L5.27817 5.28062L6.92581 0.747825C7.00702 0.529043 7.15324 0.340354 7.34483 0.207108C7.53642 0.0738619 7.76419 0.00244141 7.99756 0.00244141C8.23093 0.00244141 8.45871 0.0738619 8.6503 0.207108C8.84188 0.340354 8.9881 0.529043 9.06931 0.747825L10.7177 5.28062L15.2497 6.92825C15.4707 7.0068 15.6616 7.15221 15.7961 7.34429C15.9305 7.53636 16.0018 7.76555 16 8Z" fill="white"/>
</g>
<defs>
<clipPath id="clip0_11_55">
<rect width="16" height="16" fill="white"/>
</clipPath>
</defs>
</svg>
